<mxfile host="drawio-plugin" modified="2021-07-28T11:03:15.764Z" agent="5.0 (Macintosh; Intel Mac OS X 11_5_1) AppleWebKit/537.36 (KHTML, like Gecko) Chrome/89.0.4389.90 Safari/537.36" etag="doEYu3hkGB-919UnYurq" version="14.7.4" type="embed"><diagram id="2lWgwfLWlpWlm0RH_cGB" name="Page-1"><mxGraphModel dx="624" dy="503" grid="1" gridSize="10" guides="1" tooltips="1" connect="1" arrows="1" fold="1" page="1" pageScale="1" pageWidth="1169" pageHeight="827" math="0" shadow="0"><root><mxCell id="0"/><mxCell id="1" parent="0"/><mxCell id="ovoNfdYj4RalNDtBUMb1-1" value="gateway" style="rounded=0;whiteSpace=wrap;html=1;fillColor=#fff2cc;strokeColor=#d6b656;" parent="1" vertex="1"><mxGeometry x="230" y="203" width="60" height="220" as="geometry"/></mxCell><mxCell id="ovoNfdYj4RalNDtBUMb1-112" style="edgeStyle=orthogonalEdgeStyle;rounded=0;orthogonalLoop=1;jettySize=auto;html=1;entryX=1.083;entryY=0.141;entryDx=0;entryDy=0;entryPerimeter=0;" parent="1" source="ovoNfdYj4RalNDtBUMb1-2" target="ovoNfdYj4RalNDtBUMb1-1" edge="1"><mxGeometry relative="1" as="geometry"><Array as="points"><mxPoint x="410" y="234"/><mxPoint x="410" y="234"/></Array></mxGeometry></mxCell><mxCell id="ovoNfdYj4RalNDtBUMb1-2" value="user" style="rounded=0;whiteSpace=wrap;html=1;fillColor=#d5e8d4;strokeColor=#82b366;" parent="1" vertex="1"><mxGeometry x="446" y="223" width="84" height="30" as="geometry"/></mxCell><mxCell id="0U2jjpm3QJGgat8UiMAq-1" value="" style="edgeStyle=orthogonalEdgeStyle;rounded=0;orthogonalLoop=1;jettySize=auto;html=1;entryX=1;entryY=0.5;entryDx=0;entryDy=0;" parent="1" source="ovoNfdYj4RalNDtBUMb1-4" target="ovoNfdYj4RalNDtBUMb1-2" edge="1"><mxGeometry relative="1" as="geometry"/></mxCell><mxCell id="ovoNfdYj4RalNDtBUMb1-4" value="MySQL" style="shape=cylinder3;whiteSpace=wrap;html=1;boundedLbl=1;backgroundOutline=1;size=5;" parent="1" vertex="1"><mxGeometry x="581" y="223" width="59" height="30" as="geometry"/></mxCell><mxCell id="ovoNfdYj4RalNDtBUMb1-21" value="" style="edgeStyle=orthogonalEdgeStyle;rounded=0;orthogonalLoop=1;jettySize=auto;html=1;" parent="1" edge="1"><mxGeometry relative="1" as="geometry"><mxPoint x="291" y="353" as="targetPoint"/><Array as="points"><mxPoint x="310" y="353"/><mxPoint x="310" y="353"/></Array><mxPoint x="446" y="353" as="sourcePoint"/></mxGeometry></mxCell><mxCell id="ovoNfdYj4RalNDtBUMb1-8" value="kafka" style="shape=process;whiteSpace=wrap;html=1;backgroundOutline=1;" parent="1" vertex="1"><mxGeometry x="446" y="335.5" width="84" height="30" as="geometry"/></mxCell><mxCell id="ovoNfdYj4RalNDtBUMb1-104" style="edgeStyle=orthogonalEdgeStyle;rounded=0;orthogonalLoop=1;jettySize=auto;html=1;entryX=0.5;entryY=0;entryDx=0;entryDy=0;" parent="1" source="ovoNfdYj4RalNDtBUMb1-10" target="ovoNfdYj4RalNDtBUMb1-1" edge="1"><mxGeometry relative="1" as="geometry"/></mxCell><mxCell id="ovoNfdYj4RalNDtBUMb1-10" value="auth-center" style="rounded=0;whiteSpace=wrap;html=1;fillColor=#f8cecc;strokeColor=#b85450;" parent="1" vertex="1"><mxGeometry x="446" y="163" width="84" height="30" as="geometry"/></mxCell><mxCell id="ovoNfdYj4RalNDtBUMb1-109" style="edgeStyle=orthogonalEdgeStyle;rounded=0;orthogonalLoop=1;jettySize=auto;html=1;entryX=-0.05;entryY=0.577;entryDx=0;entryDy=0;entryPerimeter=0;" parent="1" source="ovoNfdYj4RalNDtBUMb1-14" target="ovoNfdYj4RalNDtBUMb1-1" edge="1"><mxGeometry relative="1" as="geometry"/></mxCell><mxCell id="ovoNfdYj4RalNDtBUMb1-14" value="" style="html=1;verticalLabelPosition=bottom;align=center;labelBackgroundColor=#ffffff;verticalAlign=top;strokeWidth=2;strokeColor=#0080F0;shadow=0;dashed=0;shape=mxgraph.ios7.icons.smartphone;" parent="1" vertex="1"><mxGeometry x="106" y="315.5" width="18" height="30" as="geometry"/></mxCell><mxCell id="ovoNfdYj4RalNDtBUMb1-110" style="edgeStyle=orthogonalEdgeStyle;rounded=0;orthogonalLoop=1;jettySize=auto;html=1;" parent="1" source="ovoNfdYj4RalNDtBUMb1-15" edge="1"><mxGeometry relative="1" as="geometry"><mxPoint x="225" y="395" as="targetPoint"/></mxGeometry></mxCell><mxCell id="ovoNfdYj4RalNDtBUMb1-15" value="" style="aspect=fixed;pointerEvents=1;shadow=0;dashed=0;html=1;strokeColor=none;labelPosition=center;verticalLabelPosition=bottom;verticalAlign=top;align=center;fillColor=#00188D;shape=mxgraph.azure.laptop" parent="1" vertex="1"><mxGeometry x="95" y="385.5" width="40" height="24" as="geometry"/></mxCell><mxCell id="ovoNfdYj4RalNDtBUMb1-103" style="edgeStyle=orthogonalEdgeStyle;rounded=0;orthogonalLoop=1;jettySize=auto;html=1;entryX=1;entryY=0.895;entryDx=0;entryDy=0;entryPerimeter=0;" parent="1" source="ovoNfdYj4RalNDtBUMb1-24" target="ovoNfdYj4RalNDtBUMb1-1" edge="1"><mxGeometry relative="1" as="geometry"><mxPoint x="320" y="373" as="targetPoint"/></mxGeometry></mxCell><mxCell id="ovoNfdYj4RalNDtBUMb1-24" value="alive" style="rounded=0;whiteSpace=wrap;html=1;fillColor=#d0cee2;strokeColor=#56517e;" parent="1" vertex="1"><mxGeometry x="446" y="388" width="84" height="25" as="geometry"/></mxCell><mxCell id="0U2jjpm3QJGgat8UiMAq-2" value="" style="edgeStyle=orthogonalEdgeStyle;rounded=0;orthogonalLoop=1;jettySize=auto;html=1;" parent="1" source="ovoNfdYj4RalNDtBUMb1-25" target="ovoNfdYj4RalNDtBUMb1-24" edge="1"><mxGeometry relative="1" as="geometry"/></mxCell><mxCell id="ovoNfdYj4RalNDtBUMb1-25" value="redis" style="shape=cylinder3;whiteSpace=wrap;html=1;boundedLbl=1;backgroundOutline=1;size=6;" parent="1" vertex="1"><mxGeometry x="579.13" y="385.5" width="62.75" height="30" as="geometry"/></mxCell><mxCell id="ovoNfdYj4RalNDtBUMb1-31" style="edgeStyle=orthogonalEdgeStyle;rounded=0;orthogonalLoop=1;jettySize=auto;html=1;entryX=0.5;entryY=1;entryDx=0;entryDy=0;" parent="1" source="ovoNfdYj4RalNDtBUMb1-29" target="ovoNfdYj4RalNDtBUMb1-1" edge="1"><mxGeometry relative="1" as="geometry"><mxPoint x="326" y="463" as="targetPoint"/><Array as="points"><mxPoint x="260" y="463"/></Array></mxGeometry></mxCell><mxCell id="ovoNfdYj4RalNDtBUMb1-29" value="ftp" style="rounded=0;whiteSpace=wrap;html=1;fillColor=#b0e3e6;strokeColor=#0e8088;" parent="1" vertex="1"><mxGeometry x="446" y="453" width="84" height="20" as="geometry"/></mxCell><mxCell id="0U2jjpm3QJGgat8UiMAq-4" style="edgeStyle=orthogonalEdgeStyle;rounded=0;orthogonalLoop=1;jettySize=auto;html=1;entryX=1;entryY=0.5;entryDx=0;entryDy=0;entryPerimeter=0;" parent="1" source="ovoNfdYj4RalNDtBUMb1-32" target="ovoNfdYj4RalNDtBUMb1-33" edge="1"><mxGeometry relative="1" as="geometry"><Array as="points"><mxPoint x="695" y="296"/></Array></mxGeometry></mxCell><mxCell id="q25Bx-HvlxH6gXGjlnod-2" value="" style="edgeStyle=orthogonalEdgeStyle;rounded=0;orthogonalLoop=1;jettySize=auto;html=1;entryX=1;entryY=0.5;entryDx=0;entryDy=0;" parent="1" source="ovoNfdYj4RalNDtBUMb1-32" target="ovoNfdYj4RalNDtBUMb1-8" edge="1"><mxGeometry relative="1" as="geometry"/></mxCell><mxCell id="ovoNfdYj4RalNDtBUMb1-32" value="sync" style="rounded=0;whiteSpace=wrap;html=1;fillColor=#ffcccc;strokeColor=#36393d;" parent="1" vertex="1"><mxGeometry x="585" y="337.75" width="64" height="25.5" as="geometry"/></mxCell><mxCell id="q25Bx-HvlxH6gXGjlnod-1" value="" style="edgeStyle=orthogonalEdgeStyle;rounded=0;orthogonalLoop=1;jettySize=auto;html=1;" parent="1" source="ovoNfdYj4RalNDtBUMb1-33" target="ovoNfdYj4RalNDtBUMb1-36" edge="1"><mxGeometry relative="1" as="geometry"/></mxCell><mxCell id="ovoNfdYj4RalNDtBUMb1-33" value="mongo" style="shape=cylinder3;whiteSpace=wrap;html=1;boundedLbl=1;backgroundOutline=1;size=6;" parent="1" vertex="1"><mxGeometry x="580" y="275.5" width="60" height="40" as="geometry"/></mxCell><mxCell id="ovoNfdYj4RalNDtBUMb1-38" style="edgeStyle=orthogonalEdgeStyle;rounded=0;orthogonalLoop=1;jettySize=auto;html=1;exitX=0;exitY=0.5;exitDx=0;exitDy=0;" parent="1" source="ovoNfdYj4RalNDtBUMb1-36" edge="1"><mxGeometry relative="1" as="geometry"><mxPoint x="293" y="296" as="targetPoint"/><Array as="points"><mxPoint x="293" y="296"/></Array></mxGeometry></mxCell><mxCell id="q25Bx-HvlxH6gXGjlnod-3" value="" style="edgeStyle=orthogonalEdgeStyle;rounded=0;orthogonalLoop=1;jettySize=auto;html=1;" parent="1" source="ovoNfdYj4RalNDtBUMb1-36" edge="1"><mxGeometry relative="1" as="geometry"><mxPoint x="488" y="334" as="targetPoint"/></mxGeometry></mxCell><mxCell id="ovoNfdYj4RalNDtBUMb1-36" value="conversation" style="rounded=0;whiteSpace=wrap;html=1;fillColor=#dae8fc;strokeColor=#6c8ebf;" parent="1" vertex="1"><mxGeometry x="446" y="283" width="84" height="25" as="geometry"/></mxCell><mxCell id="ovoNfdYj4RalNDtBUMb1-40" value="discovery" style="rounded=0;whiteSpace=wrap;html=1;" parent="1" vertex="1"><mxGeometry x="300" y="600" width="80" height="30" as="geometry"/></mxCell><mxCell id="ovoNfdYj4RalNDtBUMb1-52" value="k8s-dashboard" style="rounded=0;whiteSpace=wrap;html=1;fillColor=#dae8fc;strokeColor=#6c8ebf;" parent="1" vertex="1"><mxGeometry x="170" y="660" width="90" height="30" as="geometry"/></mxCell><mxCell id="0U2jjpm3QJGgat8UiMAq-5" value="" style="edgeStyle=orthogonalEdgeStyle;rounded=0;orthogonalLoop=1;jettySize=auto;html=1;" parent="1" source="ovoNfdYj4RalNDtBUMb1-61" target="ovoNfdYj4RalNDtBUMb1-40" edge="1"><mxGeometry relative="1" as="geometry"/></mxCell><mxCell id="ovoNfdYj4RalNDtBUMb1-61" value="status" style="rounded=0;whiteSpace=wrap;html=1;fillColor=#d5e8d4;strokeColor=#82b366;" parent="1" vertex="1"><mxGeometry x="305" y="660" width="70" height="30" as="geometry"/></mxCell><mxCell id="ovoNfdYj4RalNDtBUMb1-63" value="" style="edgeStyle=orthogonalEdgeStyle;rounded=0;orthogonalLoop=1;jettySize=auto;html=1;" parent="1" source="ovoNfdYj4RalNDtBUMb1-62" target="ovoNfdYj4RalNDtBUMb1-29" edge="1"><mxGeometry relative="1" as="geometry"/></mxCell><mxCell id="ovoNfdYj4RalNDtBUMb1-62" value="ftp-server" style="shape=cube;whiteSpace=wrap;html=1;boundedLbl=1;backgroundOutline=1;darkOpacity=0.05;darkOpacity2=0.1;size=10;" parent="1" vertex="1"><mxGeometry x="576" y="444.5" width="64" height="37" as="geometry"/></mxCell><mxCell id="ovoNfdYj4RalNDtBUMb1-65" value="" style="edgeStyle=orthogonalEdgeStyle;rounded=0;orthogonalLoop=1;jettySize=auto;html=1;" parent="1" source="ovoNfdYj4RalNDtBUMb1-64" target="ovoNfdYj4RalNDtBUMb1-10" edge="1"><mxGeometry relative="1" as="geometry"/></mxCell><mxCell id="ovoNfdYj4RalNDtBUMb1-113" style="edgeStyle=orthogonalEdgeStyle;rounded=0;orthogonalLoop=1;jettySize=auto;html=1;entryX=1;entryY=0.25;entryDx=0;entryDy=0;" parent="1" source="ovoNfdYj4RalNDtBUMb1-64" target="ovoNfdYj4RalNDtBUMb1-2" edge="1"><mxGeometry relative="1" as="geometry"/></mxCell><mxCell id="ovoNfdYj4RalNDtBUMb1-64" value="LDAP" style="shape=cylinder3;whiteSpace=wrap;html=1;boundedLbl=1;backgroundOutline=1;size=4;" parent="1" vertex="1"><mxGeometry x="580" y="163" width="60" height="30" as="geometry"/></mxCell><mxCell id="ovoNfdYj4RalNDtBUMb1-111" style="edgeStyle=orthogonalEdgeStyle;rounded=0;orthogonalLoop=1;jettySize=auto;html=1;entryX=0;entryY=0.227;entryDx=0;entryDy=0;entryPerimeter=0;" parent="1" target="ovoNfdYj4RalNDtBUMb1-1" edge="1"><mxGeometry relative="1" as="geometry"><mxPoint x="140" y="253" as="sourcePoint"/></mxGeometry></mxCell><mxCell id="0U2jjpm3QJGgat8UiMAq-7" value="ELK" style="rounded=0;whiteSpace=wrap;html=1;fillColor=#fff2cc;strokeColor=#d6b656;" parent="1" vertex="1"><mxGeometry x="420" y="660" width="90" height="30" as="geometry"/></mxCell><mxCell id="0U2jjpm3QJGgat8UiMAq-10" value="" style="edgeStyle=orthogonalEdgeStyle;rounded=0;orthogonalLoop=1;jettySize=auto;html=1;" parent="1" source="0U2jjpm3QJGgat8UiMAq-8" target="0U2jjpm3QJGgat8UiMAq-9" edge="1"><mxGeometry relative="1" as="geometry"/></mxCell><mxCell id="0U2jjpm3QJGgat8UiMAq-8" value="grafana" style="rounded=0;whiteSpace=wrap;html=1;fillColor=#ffe6cc;strokeColor=#d79b00;" parent="1" vertex="1"><mxGeometry x="537.25" y="660" width="90" height="30" as="geometry"/></mxCell><mxCell id="0U2jjpm3QJGgat8UiMAq-9" value="Prometheus" style="rounded=0;whiteSpace=wrap;html=1;" parent="1" vertex="1"><mxGeometry x="537.25" y="600" width="90" height="30" as="geometry"/></mxCell><mxCell id="0U2jjpm3QJGgat8UiMAq-13" value="" style="edgeStyle=orthogonalEdgeStyle;rounded=0;orthogonalLoop=1;jettySize=auto;html=1;" parent="1" source="0U2jjpm3QJGgat8UiMAq-11" target="0U2jjpm3QJGgat8UiMAq-12" edge="1"><mxGeometry relative="1" as="geometry"/></mxCell><mxCell id="0U2jjpm3QJGgat8UiMAq-11" value="zipkin" style="rounded=0;whiteSpace=wrap;html=1;fillColor=#f8cecc;strokeColor=#b85450;" parent="1" vertex="1"><mxGeometry x="650" y="660" width="90" height="30" as="geometry"/></mxCell><mxCell id="0U2jjpm3QJGgat8UiMAq-12" value="sleuth" style="rounded=0;whiteSpace=wrap;html=1;" parent="1" vertex="1"><mxGeometry x="650" y="600" width="90" height="30" as="geometry"/></mxCell><mxCell id="q25Bx-HvlxH6gXGjlnod-14" value="desktop" style="outlineConnect=0;gradientColor=none;fontColor=#545B64;strokeColor=none;fillColor=#879196;dashed=0;verticalLabelPosition=bottom;verticalAlign=top;align=center;html=1;fontSize=12;fontStyle=0;aspect=fixed;shape=mxgraph.aws4.illustration_desktop;pointerEvents=1" parent="1" vertex="1"><mxGeometry x="100" y="239.1" width="40" height="36.4" as="geometry"/></mxCell></root></mxGraphModel></diagram></mxfile>